<?xml version="1.0" encoding="UTF-8" standalone="no"?>
<svg
   height="800"
   width="1200"
   viewBox="-150 -64.44275 1300 386.6565"
   version="1.1"
   id="svg3"
   sodipodi:docname="Activision.svg"
   xmlns:inkscape="http://www.inkscape.org/namespaces/inkscape"
   xmlns:sodipodi="http://sodipodi.sourceforge.net/DTD/sodipodi-0.dtd"
   xmlns="http://www.w3.org/2000/svg"
   xmlns:svg="http://www.w3.org/2000/svg">
  <defs
     id="defs3" />
  <sodipodi:namedview
     id="namedview3"
     pagecolor="#ffffff"
     bordercolor="#000000"
     borderopacity="0.25"
     inkscape:showpageshadow="2"
     inkscape:pageopacity="0.0"
     inkscape:pagecheckerboard="0"
     inkscape:deskcolor="#d1d1d1" />
  <path
     d="m 344.211,70.75 h 39.905 V 222.954 H 344.21 Z m 583.829,87.312 v 64.312 l -40.147,-0.146 V 66.052 l 72.302,62.23 V 70.752 H 1000 v 157.82 l -71.96,-70.51 M 143.534,146.44 c 0,-43.197 35.062,-78.256 78.257,-78.256 19.467,0 37.288,7.166 50.994,18.933 l -25.86,29.346 c -6.779,-5.715 -15.546,-9.153 -25.134,-9.153 -21.598,0 -39.128,17.53 -39.128,39.128 0,21.597 17.53,39.128 39.128,39.128 9.733,0 18.645,-3.583 25.521,-9.492 l 25.812,29.394 c -13.707,11.96 -31.67,19.178 -51.333,19.178 -43.198,0.002 -78.257,-35.01 -78.257,-78.205"
     id="path1" />
  <path
     d="M 460.097,257.771 384.599,57.188 h -63.1 V 223.534 H 280.19 V 57.188 h -91.428 l 21.21,-39.953 H 414.09 L 460.094,137.429 506.15,17.235 h 197.629 l 21.79,39.953 H 535.641 l -75.544,200.583"
     id="path2" />
  <path
     d="m 587.653,222.374 v -33.61 h 27.41 c 4.455,0 12.93,-0.338 15.06,-7.407 4.407,-14.721 -40.727,-38.596 -40.727,-75.205 0,-27.7 20.048,-35.98 33.657,-35.98 h 41.548 v 33.026 h -25.666 c 0,0 -7.36,0 -9.395,2.954 -11.139,15.933 41.26,39.225 41.26,82.033 0,22.373 -19.177,34.189 -38.306,34.189 H 587.653 M 536.223,70.17 h 39.953 v 152.204 h -39.953 z m 141.067,0 h 39.952 V 222.374 H 677.29 Z M 113.219,222.954 102.612,194.626 H 53.073 L 42.47,222.954 H 0 L 77.87,0 155.74,222.954 h -42.521 m -48.04,-69.01 H 88.764 L 76.948,115.01 65.178,153.945 m 659.327,-7.553 c 0,-43.245 35.11,-78.353 78.401,-78.353 43.246,0 78.353,35.108 78.353,78.353 0,43.294 -35.11,78.402 -78.353,78.402 -43.291,0 -78.401,-35.11 -78.401,-78.402 m 39.466,0 c 0,21.5 17.435,38.935 38.935,38.935 21.452,0 38.887,-17.434 38.887,-38.935 0,-21.452 -17.435,-38.886 -38.887,-38.886 -21.5,0 -38.935,17.431 -38.935,38.886"
     id="path3" />
</svg>
